<svg xmlns="http://www.w3.org/2000/svg" width="145.274" height="40.801" viewBox="0 0 145.274 40.801">
  <g id="logo" transform="translate(-167 -359)">
    <g id="Group_3" data-name="Group 3" transform="translate(-66.676 -16.6)">
      <path id="Path_9" data-name="Path 9" d="M261.71,397.05s7.56-10.56,2.12-14.17c0,0-4.78-3.34-15.01,6.56,0,0-9.34,9.17-7.12,16.88,0,0,.89,2.61,5.34,1.88s8.23-4.28,8.23-4.28v4.38s-11.79,9.48-18.9,5.84c0,0-5.67-2.4-.56-13.76s16.23-19.8,23.35-23.03,10.22-1.14,11.22-.41,6.34,5.31-4,20.11Z" fill="#009985" fill-rule="evenodd"/>
      <rect id="Rectangle_8" data-name="Rectangle 8" width="1.93" height="2.92" transform="translate(240.85 381.8)" fill="#732c70"/>
      <rect id="Rectangle_9" data-name="Rectangle 9" width="4.94" height="3.41" transform="translate(244.38 386.82)" fill="#732c70"/>
      <rect id="Rectangle_10" data-name="Rectangle 10" width="5.47" height="5.12" transform="translate(251.29 393.16)" fill="#732c70"/>
      <rect id="Rectangle_11" data-name="Rectangle 11" width="5.97" height="6.88" transform="translate(258.63 399.84)" fill="#732c70"/>
      <rect id="Rectangle_12" data-name="Rectangle 12" width="10.7" height="10.24" transform="translate(264.62 406.16)" fill="#732c70"/>
    </g>
    <g id="Group_4" data-name="Group 4" transform="translate(-66.676 -16.6)">
      <path id="Path_10" data-name="Path 10" d="M297.77,403.42h-5.86a6.626,6.626,0,0,1-1.77-.24,4.474,4.474,0,0,1-2.68-2.28,7.751,7.751,0,0,1-.89-3.77,8.166,8.166,0,0,1,.8-3.68,4.675,4.675,0,0,1,2.49-2.41,6.9,6.9,0,0,1,2.56-.5h5.32v2.47h-5.53a2.055,2.055,0,0,0-1.96,1.42,7.551,7.551,0,0,0-.47,2.89,4.977,4.977,0,0,0,.61,2.56,2.163,2.163,0,0,0,1.97,1.24h5.41Z" fill-rule="evenodd"/>
      <path id="Path_11" data-name="Path 11" d="M309.18,397.14v6.28H306.5v-5.79c0-.18,0-.38-.02-.61a.9.9,0,0,0-.3-.63,1.388,1.388,0,0,0-.58-.37,2.865,2.865,0,0,0-.72-.08h-2.25v7.48h-2.68V390.54h2.68v3.34h3.26a4.716,4.716,0,0,1,1.31.14,2.8,2.8,0,0,1,1.03.6,2.661,2.661,0,0,1,.74,1.06A4.42,4.42,0,0,1,309.18,397.14Z" fill-rule="evenodd"/>
      <path id="Path_12" data-name="Path 12" d="M314.57,403.42h-2.62v-9.54h2.62Zm0-10.61h-2.62v-2.27h2.62Z" fill-rule="evenodd"/>
      <path id="Path_13" data-name="Path 13" d="M324.24,398.58a2.614,2.614,0,0,0-.79-1.97,2.693,2.693,0,0,0-1.96-.76h-1.86v5.56h2.05a2.38,2.38,0,0,0,1.85-.78A2.954,2.954,0,0,0,324.24,398.58Zm2.68-.15a5.269,5.269,0,0,1-1.22,3.64,4.139,4.139,0,0,1-3.21,1.35h-2.86v3.48h-2.68V393.88h5.28a4.634,4.634,0,0,1,3.49,1.29A4.474,4.474,0,0,1,326.92,398.43Z" fill-rule="evenodd"/>
      <path id="Path_14" data-name="Path 14" d="M345.64,403.42h-2.86v-9.84l-3.77,9.84H335.6l-3.88-10.06v10.06h-2.77V390.54h4.44l3.9,10.19,3.74-10.19h4.61Z" fill-rule="evenodd"/>
      <path id="Path_15" data-name="Path 15" d="M359.83,396.89a4.609,4.609,0,0,0-.93-3.03,3.818,3.818,0,0,0-3.09-1.25,3.585,3.585,0,0,0-3.04,1.34,4.751,4.751,0,0,0-.86,2.94,5.461,5.461,0,0,0,.69,3.08c.63.93,1.8,1.39,3.51,1.39a3.343,3.343,0,0,0,3.04-1.35A5.825,5.825,0,0,0,359.83,396.89Zm3.38.07q0,3.765-2.14,5.39a8.442,8.442,0,0,1-5.09,1.31c-2.47,0-4.3-.5-5.47-1.51q-1.935-1.665-1.94-5.33a6.242,6.242,0,0,1,1.73-4.69c1.25-1.22,3.13-1.83,5.62-1.83,2.75,0,4.68.59,5.81,1.76C362.72,393.09,363.21,394.73,363.21,396.96Z" fill-rule="evenodd"/>
      <path id="Path_16" data-name="Path 16" d="M378.95,399.41a3.877,3.877,0,0,1-1.16,2.85,4.01,4.01,0,0,1-2.95,1.16h-9.4v-2.3h7.75a2.346,2.346,0,0,0,1.31-.35,1.287,1.287,0,0,0,.61-1.12c0-1.1-.8-1.65-2.39-1.65H368.8a4.6,4.6,0,0,1-2.96-1.01,3.132,3.132,0,0,1-1.27-2.57,3.525,3.525,0,0,1,1.24-2.8,4.822,4.822,0,0,1,3.28-1.08h8.98v2.21h-7.92a1.727,1.727,0,0,0-1.07.44,1.251,1.251,0,0,0-.54,1.01,1.4,1.4,0,0,0,.52,1.11,1.872,1.872,0,0,0,1.26.45h4.31a4.653,4.653,0,0,1,3.17,1A3.364,3.364,0,0,1,378.95,399.41Z" fill-rule="evenodd"/>
    </g>
  </g>
</svg>
